# xmcd
#
# Track frame offsets:
#	150
#	18625
#	38138
#	57755
#	76418
#	101723
#	120644
#	145417
#	167337
#	189133
#	204069
#	227504
#
# Disc length: 3240 seconds
#
# Revision: 1
# Processed by: cddbd v1.5.2PL0 Copyright (c) Steve Scherf et al.
# Submitted via: audiograbber 1.83.01
#
DISCID=8e0ca60c
DTITLE=Florin Chilian - Iubi
DYEAR=2008
DGENRE=Blues
TTITLE0=Ursitoare
TTITLE1=Lumi albe
TTITLE2=So Why
TTITLE3=Vecina de sus
TTITLE4=Iubi
TTITLE5=Cantecu' lu' Tanase
TTITLE6=Intoarce-te cand dorm
TTITLE7=Salveaza-ma de mine
TTITLE8=Chiar daca...
TTITLE9=Taxe
TTITLE10=Pasaport pentru suflet
TTITLE11=Chiar daca... (in 2008)
EXTD=
EXTT0=
EXTT1=
EXTT2=
EXTT3=
EXTT4=
EXTT5=
EXTT6=
EXTT7=
EXTT8=
EXTT9=
EXTT10=
EXTT11=
PLAYORDER=
